# xmcd
# 
# Track frame offsets:
#     150
#     11920
#     22120
#     32147
#     44127
#     57070
#     69875
#     84320
#     98290
#     110790
#     123767
#     136640
# 
# Disc length: 1986
# 
# Revision: 5
# Processed by: cddbd v1.5.2PL0 Copyright (c) Steve Scherf et al.
# Submitted via: fre:ac v1.1beta1pre5
# 
DISCID=9407c00c
DTITLE=Various Artist - The Blues Volume 1
DYEAR=1963
DGENRE=Blues
TTITLE0=Sonny Boy Williamson - Don't Start Me to Talkin'
TTITLE1=Buddy Guy - First Time I Met the Blues
TTITLE2=Chuck Berry - Worried Life Blues
TTITLE3=Little Walter - My Babe
TTITLE4=John Lee Hooker - Walkin' The Boogie
TTITLE5=Muddy Waters - Hoochie Coochie Man
TTITLE6=Lowell Fulson - Reconsider Baby
TTITLE7=Howlin' Wolf - Smokestack Lightning
TTITLE8=Little Walter - Juke
TTITLE9=Jimmy Witherspoon - When The Lights Go Out
TTITLE10=Muddy Waters - Just Make Love To Me
TTITLE11=Howlin' Wolf - Spoonful
EXTD=
EXTT0=
EXTT1=
EXTT2=
EXTT3=
EXTT4=
EXTT5=
EXTT6=
EXTT7=
EXTT8=
EXTT9=
EXTT10=
EXTT11=
PLAYORDER=
